<?xml version="1.0" encoding="utf-8"?>
<!-- Generator: Adobe Illustrator 17.0.0, SVG Export Plug-In . SVG Version: 6.00 Build 0)  -->
<!DOCTYPE svg PUBLIC "-//W3C//DTD SVG 1.1//EN" "http://www.w3.org/Graphics/SVG/1.1/DTD/svg11.dtd">
<svg version="1.1" id="Ebene_1" xmlns="http://www.w3.org/2000/svg" xmlns:xlink="http://www.w3.org/1999/xlink" x="0px" y="0px"
	 width="437.587px" height="194px" viewBox="0 0 437.587 194" enable-background="new 0 0 437.587 194" xml:space="preserve">
<rect x="32.125" y="14.242" fill="none" stroke="#00FF00" stroke-width="0.25" width="373.337" height="165.515"/>
<g>
	<g>
		<g>
			<g>
				<line fill="none" stroke="#FF0000" stroke-width="0.25" x1="280.46" y1="164.715" x2="280.46" y2="188.901"/>
			</g>
			<g>
				<line fill="none" stroke="#FF0000" stroke-width="0.25" x1="275.623" y1="164.715" x2="275.623" y2="188.901"/>
			</g>
			<g>
				<line fill="none" stroke="#FF0000" stroke-width="0.25" x1="270.788" y1="164.715" x2="270.788" y2="188.901"/>
			</g>
			<g>
				<line fill="none" stroke="#FF0000" stroke-width="0.25" x1="265.951" y1="164.715" x2="265.951" y2="188.901"/>
			</g>
			<g>
				<line fill="none" stroke="#FF0000" stroke-width="0.25" x1="261.114" y1="164.715" x2="261.114" y2="188.901"/>
			</g>
			<g>
				<line fill="none" stroke="#FF0000" stroke-width="0.25" x1="256.278" y1="164.715" x2="256.278" y2="188.901"/>
			</g>
			<g>
				<line fill="none" stroke="#FF0000" stroke-width="0.25" x1="251.441" y1="164.715" x2="251.441" y2="188.901"/>
			</g>
			<g>
				<line fill="none" stroke="#FF0000" stroke-width="0.25" x1="246.604" y1="164.715" x2="246.604" y2="188.901"/>
			</g>
			<g>
				<line fill="none" stroke="#FF0000" stroke-width="0.25" x1="241.768" y1="164.715" x2="241.768" y2="188.901"/>
			</g>
			<g>
				<line fill="none" stroke="#FF0000" stroke-width="0.25" x1="236.931" y1="164.715" x2="236.931" y2="188.901"/>
			</g>
			<g>
				<line fill="none" stroke="#FF0000" stroke-width="0.25" x1="232.094" y1="164.715" x2="232.094" y2="188.901"/>
			</g>
			<g>
				<line fill="none" stroke="#FF0000" stroke-width="0.25" x1="227.258" y1="164.715" x2="227.258" y2="188.901"/>
			</g>
			<g>
				<line fill="none" stroke="#FF0000" stroke-width="0.25" x1="222.421" y1="164.715" x2="222.421" y2="188.901"/>
			</g>
			<g>
				<line fill="none" stroke="#FF0000" stroke-width="0.25" x1="217.584" y1="164.715" x2="217.584" y2="188.901"/>
			</g>
			<g>
				<line fill="none" stroke="#FF0000" stroke-width="0.25" x1="212.747" y1="164.715" x2="212.747" y2="188.901"/>
			</g>
			<g>
				<line fill="none" stroke="#FF0000" stroke-width="0.25" x1="207.91" y1="164.715" x2="207.91" y2="188.901"/>
			</g>
			<g>
				<line fill="none" stroke="#FF0000" stroke-width="0.25" x1="203.074" y1="164.715" x2="203.074" y2="188.901"/>
			</g>
			<g>
				<line fill="none" stroke="#FF0000" stroke-width="0.25" x1="198.238" y1="164.715" x2="198.238" y2="188.901"/>
			</g>
			<g>
				<line fill="none" stroke="#FF0000" stroke-width="0.25" x1="193.401" y1="164.715" x2="193.401" y2="188.901"/>
			</g>
			<g>
				<line fill="none" stroke="#FF0000" stroke-width="0.25" x1="188.565" y1="164.715" x2="188.565" y2="188.901"/>
			</g>
			<g>
				<line fill="none" stroke="#FF0000" stroke-width="0.25" x1="183.728" y1="164.715" x2="183.728" y2="188.901"/>
			</g>
			<g>
				<line fill="none" stroke="#FF0000" stroke-width="0.25" x1="178.892" y1="164.715" x2="178.892" y2="188.901"/>
			</g>
			<g>
				<line fill="none" stroke="#FF0000" stroke-width="0.25" x1="174.056" y1="164.715" x2="174.056" y2="188.901"/>
			</g>
			<g>
				<line fill="none" stroke="#FF0000" stroke-width="0.25" x1="169.219" y1="164.715" x2="169.219" y2="188.901"/>
			</g>
			<g>
				<line fill="none" stroke="#FF0000" stroke-width="0.25" x1="164.382" y1="164.715" x2="164.382" y2="188.901"/>
			</g>
			<g>
				<line fill="none" stroke="#FF0000" stroke-width="0.25" x1="159.546" y1="164.715" x2="159.546" y2="188.901"/>
			</g>
		</g>
		<g>
			<g>
				<line fill="none" stroke="#FF0000" stroke-width="0.25" x1="278.041" y1="150.205" x2="278.041" y2="174.39"/>
			</g>
			<g>
				<line fill="none" stroke="#FF0000" stroke-width="0.25" x1="273.205" y1="150.205" x2="273.205" y2="174.39"/>
			</g>
			<g>
				<line fill="none" stroke="#FF0000" stroke-width="0.25" x1="268.369" y1="150.205" x2="268.369" y2="174.39"/>
			</g>
			<g>
				<line fill="none" stroke="#FF0000" stroke-width="0.25" x1="263.532" y1="150.205" x2="263.532" y2="174.39"/>
			</g>
			<g>
				<line fill="none" stroke="#FF0000" stroke-width="0.25" x1="258.696" y1="150.205" x2="258.696" y2="174.39"/>
			</g>
			<g>
				<line fill="none" stroke="#FF0000" stroke-width="0.25" x1="253.859" y1="150.205" x2="253.859" y2="174.39"/>
			</g>
			<g>
				<line fill="none" stroke="#FF0000" stroke-width="0.25" x1="249.022" y1="150.205" x2="249.022" y2="174.39"/>
			</g>
			<g>
				<line fill="none" stroke="#FF0000" stroke-width="0.25" x1="244.186" y1="150.205" x2="244.186" y2="174.39"/>
			</g>
			<g>
				<line fill="none" stroke="#FF0000" stroke-width="0.25" x1="239.349" y1="150.205" x2="239.349" y2="174.39"/>
			</g>
			<g>
				<line fill="none" stroke="#FF0000" stroke-width="0.25" x1="234.512" y1="150.205" x2="234.512" y2="174.39"/>
			</g>
			<g>
				<line fill="none" stroke="#FF0000" stroke-width="0.25" x1="229.676" y1="150.205" x2="229.676" y2="174.39"/>
			</g>
			<g>
				<line fill="none" stroke="#FF0000" stroke-width="0.25" x1="224.839" y1="150.205" x2="224.839" y2="174.39"/>
			</g>
			<g>
				<line fill="none" stroke="#FF0000" stroke-width="0.25" x1="220.002" y1="150.205" x2="220.002" y2="174.39"/>
			</g>
			<g>
				<line fill="none" stroke="#FF0000" stroke-width="0.25" x1="215.165" y1="150.205" x2="215.165" y2="174.39"/>
			</g>
			<g>
				<line fill="none" stroke="#FF0000" stroke-width="0.25" x1="210.328" y1="150.205" x2="210.328" y2="174.39"/>
			</g>
			<g>
				<line fill="none" stroke="#FF0000" stroke-width="0.25" x1="205.492" y1="150.205" x2="205.492" y2="174.39"/>
			</g>
			<g>
				<line fill="none" stroke="#FF0000" stroke-width="0.25" x1="200.655" y1="150.205" x2="200.655" y2="174.39"/>
			</g>
			<g>
				<line fill="none" stroke="#FF0000" stroke-width="0.25" x1="195.819" y1="150.205" x2="195.819" y2="174.39"/>
			</g>
			<g>
				<line fill="none" stroke="#FF0000" stroke-width="0.25" x1="190.983" y1="150.205" x2="190.983" y2="174.39"/>
			</g>
			<g>
				<line fill="none" stroke="#FF0000" stroke-width="0.25" x1="186.146" y1="150.205" x2="186.146" y2="174.39"/>
			</g>
			<g>
				<line fill="none" stroke="#FF0000" stroke-width="0.25" x1="181.31" y1="150.205" x2="181.31" y2="174.39"/>
			</g>
			<g>
				<line fill="none" stroke="#FF0000" stroke-width="0.25" x1="176.474" y1="150.205" x2="176.474" y2="174.39"/>
			</g>
			<g>
				<line fill="none" stroke="#FF0000" stroke-width="0.25" x1="171.637" y1="150.205" x2="171.637" y2="174.39"/>
			</g>
			<g>
				<line fill="none" stroke="#FF0000" stroke-width="0.25" x1="166.8" y1="150.205" x2="166.8" y2="174.39"/>
			</g>
			<g>
				<line fill="none" stroke="#FF0000" stroke-width="0.25" x1="161.964" y1="150.205" x2="161.964" y2="174.39"/>
			</g>
			<g>
				<line fill="none" stroke="#FF0000" stroke-width="0.25" x1="157.127" y1="150.205" x2="157.127" y2="174.39"/>
			</g>
		</g>
	</g>
	<g>
		<g>
			<g>
				<line fill="none" stroke="#FF0000" stroke-width="0.25" x1="280.46" y1="135.694" x2="280.46" y2="159.88"/>
			</g>
			<g>
				<line fill="none" stroke="#FF0000" stroke-width="0.25" x1="275.623" y1="135.694" x2="275.623" y2="159.88"/>
			</g>
			<g>
				<line fill="none" stroke="#FF0000" stroke-width="0.25" x1="270.788" y1="135.694" x2="270.788" y2="159.88"/>
			</g>
			<g>
				<line fill="none" stroke="#FF0000" stroke-width="0.25" x1="265.951" y1="135.694" x2="265.951" y2="159.88"/>
			</g>
			<g>
				<line fill="none" stroke="#FF0000" stroke-width="0.25" x1="261.114" y1="135.694" x2="261.114" y2="159.88"/>
			</g>
			<g>
				<line fill="none" stroke="#FF0000" stroke-width="0.25" x1="256.278" y1="135.694" x2="256.278" y2="159.88"/>
			</g>
			<g>
				<line fill="none" stroke="#FF0000" stroke-width="0.25" x1="251.441" y1="135.694" x2="251.441" y2="159.88"/>
			</g>
			<g>
				<line fill="none" stroke="#FF0000" stroke-width="0.25" x1="246.604" y1="135.694" x2="246.604" y2="159.88"/>
			</g>
			<g>
				<line fill="none" stroke="#FF0000" stroke-width="0.25" x1="241.768" y1="135.694" x2="241.768" y2="159.88"/>
			</g>
			<g>
				<line fill="none" stroke="#FF0000" stroke-width="0.25" x1="236.931" y1="135.694" x2="236.931" y2="159.88"/>
			</g>
			<g>
				<line fill="none" stroke="#FF0000" stroke-width="0.25" x1="232.094" y1="135.694" x2="232.094" y2="159.88"/>
			</g>
			<g>
				<line fill="none" stroke="#FF0000" stroke-width="0.25" x1="227.258" y1="135.694" x2="227.258" y2="159.88"/>
			</g>
			<g>
				<line fill="none" stroke="#FF0000" stroke-width="0.25" x1="222.421" y1="135.694" x2="222.421" y2="159.88"/>
			</g>
			<g>
				<line fill="none" stroke="#FF0000" stroke-width="0.25" x1="217.584" y1="135.694" x2="217.584" y2="159.88"/>
			</g>
			<g>
				<line fill="none" stroke="#FF0000" stroke-width="0.25" x1="212.747" y1="135.694" x2="212.747" y2="159.88"/>
			</g>
			<g>
				<line fill="none" stroke="#FF0000" stroke-width="0.25" x1="207.91" y1="135.694" x2="207.91" y2="159.88"/>
			</g>
			<g>
				<line fill="none" stroke="#FF0000" stroke-width="0.25" x1="203.074" y1="135.694" x2="203.074" y2="159.88"/>
			</g>
			<g>
				<line fill="none" stroke="#FF0000" stroke-width="0.25" x1="198.238" y1="135.694" x2="198.238" y2="159.88"/>
			</g>
			<g>
				<line fill="none" stroke="#FF0000" stroke-width="0.25" x1="193.401" y1="135.694" x2="193.401" y2="159.88"/>
			</g>
			<g>
				<line fill="none" stroke="#FF0000" stroke-width="0.25" x1="188.565" y1="135.694" x2="188.565" y2="159.88"/>
			</g>
			<g>
				<line fill="none" stroke="#FF0000" stroke-width="0.25" x1="183.728" y1="135.694" x2="183.728" y2="159.88"/>
			</g>
			<g>
				<line fill="none" stroke="#FF0000" stroke-width="0.25" x1="178.892" y1="135.694" x2="178.892" y2="159.88"/>
			</g>
			<g>
				<line fill="none" stroke="#FF0000" stroke-width="0.25" x1="174.056" y1="135.694" x2="174.056" y2="159.88"/>
			</g>
			<g>
				<line fill="none" stroke="#FF0000" stroke-width="0.25" x1="169.219" y1="135.694" x2="169.219" y2="159.88"/>
			</g>
			<g>
				<line fill="none" stroke="#FF0000" stroke-width="0.25" x1="164.382" y1="135.694" x2="164.382" y2="159.88"/>
			</g>
			<g>
				<line fill="none" stroke="#FF0000" stroke-width="0.25" x1="159.546" y1="135.694" x2="159.546" y2="159.88"/>
			</g>
		</g>
		<g>
			<g>
				<line fill="none" stroke="#FF0000" stroke-width="0.25" x1="278.041" y1="121.183" x2="278.041" y2="145.369"/>
			</g>
			<g>
				<line fill="none" stroke="#FF0000" stroke-width="0.25" x1="273.205" y1="121.183" x2="273.205" y2="145.369"/>
			</g>
			<g>
				<line fill="none" stroke="#FF0000" stroke-width="0.25" x1="268.369" y1="121.183" x2="268.369" y2="145.369"/>
			</g>
			<g>
				<line fill="none" stroke="#FF0000" stroke-width="0.25" x1="263.532" y1="121.183" x2="263.532" y2="145.369"/>
			</g>
			<g>
				<line fill="none" stroke="#FF0000" stroke-width="0.25" x1="258.696" y1="121.183" x2="258.696" y2="145.369"/>
			</g>
			<g>
				<line fill="none" stroke="#FF0000" stroke-width="0.25" x1="253.859" y1="121.183" x2="253.859" y2="145.369"/>
			</g>
			<g>
				<line fill="none" stroke="#FF0000" stroke-width="0.25" x1="249.022" y1="121.183" x2="249.022" y2="145.369"/>
			</g>
			<g>
				<line fill="none" stroke="#FF0000" stroke-width="0.25" x1="244.186" y1="121.183" x2="244.186" y2="145.369"/>
			</g>
			<g>
				<line fill="none" stroke="#FF0000" stroke-width="0.25" x1="239.349" y1="121.183" x2="239.349" y2="145.369"/>
			</g>
			<g>
				<line fill="none" stroke="#FF0000" stroke-width="0.25" x1="234.512" y1="121.183" x2="234.512" y2="145.369"/>
			</g>
			<g>
				<line fill="none" stroke="#FF0000" stroke-width="0.25" x1="229.676" y1="121.183" x2="229.676" y2="145.369"/>
			</g>
			<g>
				<line fill="none" stroke="#FF0000" stroke-width="0.25" x1="224.839" y1="121.183" x2="224.839" y2="145.369"/>
			</g>
			<g>
				<line fill="none" stroke="#FF0000" stroke-width="0.25" x1="220.002" y1="121.183" x2="220.002" y2="145.369"/>
			</g>
			<g>
				<line fill="none" stroke="#FF0000" stroke-width="0.25" x1="215.165" y1="121.183" x2="215.165" y2="145.369"/>
			</g>
			<g>
				<line fill="none" stroke="#FF0000" stroke-width="0.25" x1="210.328" y1="121.183" x2="210.328" y2="145.369"/>
			</g>
			<g>
				<line fill="none" stroke="#FF0000" stroke-width="0.25" x1="205.492" y1="121.183" x2="205.492" y2="145.369"/>
			</g>
			<g>
				<line fill="none" stroke="#FF0000" stroke-width="0.25" x1="200.655" y1="121.183" x2="200.655" y2="145.369"/>
			</g>
			<g>
				<line fill="none" stroke="#FF0000" stroke-width="0.25" x1="195.819" y1="121.183" x2="195.819" y2="145.369"/>
			</g>
			<g>
				<line fill="none" stroke="#FF0000" stroke-width="0.25" x1="190.983" y1="121.183" x2="190.983" y2="145.369"/>
			</g>
			<g>
				<line fill="none" stroke="#FF0000" stroke-width="0.25" x1="186.146" y1="121.183" x2="186.146" y2="145.369"/>
			</g>
			<g>
				<line fill="none" stroke="#FF0000" stroke-width="0.25" x1="181.31" y1="121.183" x2="181.31" y2="145.369"/>
			</g>
			<g>
				<line fill="none" stroke="#FF0000" stroke-width="0.25" x1="176.474" y1="121.183" x2="176.474" y2="145.369"/>
			</g>
			<g>
				<line fill="none" stroke="#FF0000" stroke-width="0.25" x1="171.637" y1="121.183" x2="171.637" y2="145.369"/>
			</g>
			<g>
				<line fill="none" stroke="#FF0000" stroke-width="0.25" x1="166.8" y1="121.183" x2="166.8" y2="145.369"/>
			</g>
			<g>
				<line fill="none" stroke="#FF0000" stroke-width="0.25" x1="161.964" y1="121.183" x2="161.964" y2="145.369"/>
			</g>
			<g>
				<line fill="none" stroke="#FF0000" stroke-width="0.25" x1="157.127" y1="121.183" x2="157.127" y2="145.369"/>
			</g>
		</g>
	</g>
	<g>
		<g>
			<g>
				<line fill="none" stroke="#FF0000" stroke-width="0.25" x1="280.46" y1="106.673" x2="280.46" y2="130.858"/>
			</g>
			<g>
				<line fill="none" stroke="#FF0000" stroke-width="0.25" x1="275.623" y1="106.673" x2="275.623" y2="130.858"/>
			</g>
			<g>
				<line fill="none" stroke="#FF0000" stroke-width="0.25" x1="270.788" y1="106.673" x2="270.788" y2="130.858"/>
			</g>
			<g>
				<line fill="none" stroke="#FF0000" stroke-width="0.25" x1="265.951" y1="106.673" x2="265.951" y2="130.858"/>
			</g>
			<g>
				<line fill="none" stroke="#FF0000" stroke-width="0.25" x1="261.114" y1="106.673" x2="261.114" y2="130.858"/>
			</g>
			<g>
				<line fill="none" stroke="#FF0000" stroke-width="0.25" x1="256.278" y1="106.673" x2="256.278" y2="130.858"/>
			</g>
			<g>
				<line fill="none" stroke="#FF0000" stroke-width="0.25" x1="251.441" y1="106.673" x2="251.441" y2="130.858"/>
			</g>
			<g>
				<line fill="none" stroke="#FF0000" stroke-width="0.25" x1="246.604" y1="106.673" x2="246.604" y2="130.858"/>
			</g>
			<g>
				<line fill="none" stroke="#FF0000" stroke-width="0.25" x1="241.768" y1="106.673" x2="241.768" y2="130.858"/>
			</g>
			<g>
				<line fill="none" stroke="#FF0000" stroke-width="0.25" x1="236.931" y1="106.673" x2="236.931" y2="130.858"/>
			</g>
			<g>
				<line fill="none" stroke="#FF0000" stroke-width="0.25" x1="232.094" y1="106.673" x2="232.094" y2="130.858"/>
			</g>
			<g>
				<line fill="none" stroke="#FF0000" stroke-width="0.25" x1="227.258" y1="106.673" x2="227.258" y2="130.858"/>
			</g>
			<g>
				<line fill="none" stroke="#FF0000" stroke-width="0.25" x1="222.421" y1="106.673" x2="222.421" y2="130.858"/>
			</g>
			<g>
				<line fill="none" stroke="#FF0000" stroke-width="0.25" x1="217.584" y1="106.673" x2="217.584" y2="130.858"/>
			</g>
			<g>
				<line fill="none" stroke="#FF0000" stroke-width="0.25" x1="212.747" y1="106.673" x2="212.747" y2="130.858"/>
			</g>
			<g>
				<line fill="none" stroke="#FF0000" stroke-width="0.25" x1="207.91" y1="106.673" x2="207.91" y2="130.858"/>
			</g>
			<g>
				<line fill="none" stroke="#FF0000" stroke-width="0.25" x1="203.074" y1="106.673" x2="203.074" y2="130.858"/>
			</g>
			<g>
				<line fill="none" stroke="#FF0000" stroke-width="0.25" x1="198.238" y1="106.673" x2="198.238" y2="130.858"/>
			</g>
			<g>
				<line fill="none" stroke="#FF0000" stroke-width="0.25" x1="193.401" y1="106.673" x2="193.401" y2="130.858"/>
			</g>
			<g>
				<line fill="none" stroke="#FF0000" stroke-width="0.25" x1="188.565" y1="106.673" x2="188.565" y2="130.858"/>
			</g>
			<g>
				<line fill="none" stroke="#FF0000" stroke-width="0.25" x1="183.728" y1="106.673" x2="183.728" y2="130.858"/>
			</g>
			<g>
				<line fill="none" stroke="#FF0000" stroke-width="0.25" x1="178.892" y1="106.673" x2="178.892" y2="130.858"/>
			</g>
			<g>
				<line fill="none" stroke="#FF0000" stroke-width="0.25" x1="174.056" y1="106.673" x2="174.056" y2="130.858"/>
			</g>
			<g>
				<line fill="none" stroke="#FF0000" stroke-width="0.25" x1="169.219" y1="106.673" x2="169.219" y2="130.858"/>
			</g>
			<g>
				<line fill="none" stroke="#FF0000" stroke-width="0.25" x1="164.382" y1="106.673" x2="164.382" y2="130.858"/>
			</g>
			<g>
				<line fill="none" stroke="#FF0000" stroke-width="0.25" x1="159.546" y1="106.673" x2="159.546" y2="130.858"/>
			</g>
		</g>
		<g>
			<g>
				<line fill="none" stroke="#FF0000" stroke-width="0.25" x1="278.041" y1="92.163" x2="278.041" y2="116.348"/>
			</g>
			<g>
				<line fill="none" stroke="#FF0000" stroke-width="0.25" x1="273.205" y1="92.163" x2="273.205" y2="116.348"/>
			</g>
			<g>
				<line fill="none" stroke="#FF0000" stroke-width="0.25" x1="268.369" y1="92.163" x2="268.369" y2="116.348"/>
			</g>
			<g>
				<line fill="none" stroke="#FF0000" stroke-width="0.25" x1="263.532" y1="92.163" x2="263.532" y2="116.348"/>
			</g>
			<g>
				<line fill="none" stroke="#FF0000" stroke-width="0.25" x1="258.696" y1="92.163" x2="258.696" y2="116.348"/>
			</g>
			<g>
				<line fill="none" stroke="#FF0000" stroke-width="0.25" x1="253.859" y1="92.163" x2="253.859" y2="116.348"/>
			</g>
			<g>
				<line fill="none" stroke="#FF0000" stroke-width="0.25" x1="249.022" y1="92.163" x2="249.022" y2="116.348"/>
			</g>
			<g>
				<line fill="none" stroke="#FF0000" stroke-width="0.25" x1="244.186" y1="92.163" x2="244.186" y2="116.348"/>
			</g>
			<g>
				<line fill="none" stroke="#FF0000" stroke-width="0.25" x1="239.349" y1="92.163" x2="239.349" y2="116.348"/>
			</g>
			<g>
				<line fill="none" stroke="#FF0000" stroke-width="0.25" x1="234.512" y1="92.163" x2="234.512" y2="116.348"/>
			</g>
			<g>
				<line fill="none" stroke="#FF0000" stroke-width="0.25" x1="229.676" y1="92.163" x2="229.676" y2="116.348"/>
			</g>
			<g>
				<line fill="none" stroke="#FF0000" stroke-width="0.25" x1="224.839" y1="92.163" x2="224.839" y2="116.348"/>
			</g>
			<g>
				<line fill="none" stroke="#FF0000" stroke-width="0.25" x1="220.002" y1="92.163" x2="220.002" y2="116.348"/>
			</g>
			<g>
				<line fill="none" stroke="#FF0000" stroke-width="0.25" x1="215.165" y1="92.163" x2="215.165" y2="116.348"/>
			</g>
			<g>
				<line fill="none" stroke="#FF0000" stroke-width="0.25" x1="210.328" y1="92.163" x2="210.328" y2="116.348"/>
			</g>
			<g>
				<line fill="none" stroke="#FF0000" stroke-width="0.25" x1="205.492" y1="92.163" x2="205.492" y2="116.348"/>
			</g>
			<g>
				<line fill="none" stroke="#FF0000" stroke-width="0.25" x1="200.655" y1="92.163" x2="200.655" y2="116.348"/>
			</g>
			<g>
				<line fill="none" stroke="#FF0000" stroke-width="0.25" x1="195.819" y1="92.163" x2="195.819" y2="116.348"/>
			</g>
			<g>
				<line fill="none" stroke="#FF0000" stroke-width="0.25" x1="190.983" y1="92.163" x2="190.983" y2="116.348"/>
			</g>
			<g>
				<line fill="none" stroke="#FF0000" stroke-width="0.25" x1="186.146" y1="92.163" x2="186.146" y2="116.348"/>
			</g>
			<g>
				<line fill="none" stroke="#FF0000" stroke-width="0.25" x1="181.31" y1="92.163" x2="181.31" y2="116.348"/>
			</g>
			<g>
				<line fill="none" stroke="#FF0000" stroke-width="0.25" x1="176.474" y1="92.163" x2="176.474" y2="116.348"/>
			</g>
			<g>
				<line fill="none" stroke="#FF0000" stroke-width="0.25" x1="171.637" y1="92.163" x2="171.637" y2="116.348"/>
			</g>
			<g>
				<line fill="none" stroke="#FF0000" stroke-width="0.25" x1="166.8" y1="92.163" x2="166.8" y2="116.348"/>
			</g>
			<g>
				<line fill="none" stroke="#FF0000" stroke-width="0.25" x1="161.964" y1="92.163" x2="161.964" y2="116.348"/>
			</g>
			<g>
				<line fill="none" stroke="#FF0000" stroke-width="0.25" x1="157.127" y1="92.163" x2="157.127" y2="116.348"/>
			</g>
		</g>
	</g>
	<g>
		<g>
			<g>
				<line fill="none" stroke="#FF0000" stroke-width="0.25" x1="280.46" y1="77.652" x2="280.46" y2="101.837"/>
			</g>
			<g>
				<line fill="none" stroke="#FF0000" stroke-width="0.25" x1="275.623" y1="77.652" x2="275.623" y2="101.837"/>
			</g>
			<g>
				<line fill="none" stroke="#FF0000" stroke-width="0.25" x1="270.788" y1="77.652" x2="270.788" y2="101.837"/>
			</g>
			<g>
				<line fill="none" stroke="#FF0000" stroke-width="0.25" x1="265.951" y1="77.652" x2="265.951" y2="101.837"/>
			</g>
			<g>
				<line fill="none" stroke="#FF0000" stroke-width="0.25" x1="261.114" y1="77.652" x2="261.114" y2="101.837"/>
			</g>
			<g>
				<line fill="none" stroke="#FF0000" stroke-width="0.25" x1="256.278" y1="77.652" x2="256.278" y2="101.837"/>
			</g>
			<g>
				<line fill="none" stroke="#FF0000" stroke-width="0.25" x1="251.441" y1="77.652" x2="251.441" y2="101.837"/>
			</g>
			<g>
				<line fill="none" stroke="#FF0000" stroke-width="0.25" x1="246.604" y1="77.652" x2="246.604" y2="101.837"/>
			</g>
			<g>
				<line fill="none" stroke="#FF0000" stroke-width="0.25" x1="241.768" y1="77.652" x2="241.768" y2="101.837"/>
			</g>
			<g>
				<line fill="none" stroke="#FF0000" stroke-width="0.25" x1="236.931" y1="77.652" x2="236.931" y2="101.837"/>
			</g>
			<g>
				<line fill="none" stroke="#FF0000" stroke-width="0.25" x1="232.094" y1="77.652" x2="232.094" y2="101.837"/>
			</g>
			<g>
				<line fill="none" stroke="#FF0000" stroke-width="0.25" x1="227.258" y1="77.652" x2="227.258" y2="101.837"/>
			</g>
			<g>
				<line fill="none" stroke="#FF0000" stroke-width="0.25" x1="222.421" y1="77.652" x2="222.421" y2="101.837"/>
			</g>
			<g>
				<line fill="none" stroke="#FF0000" stroke-width="0.25" x1="217.584" y1="77.652" x2="217.584" y2="101.837"/>
			</g>
			<g>
				<line fill="none" stroke="#FF0000" stroke-width="0.25" x1="212.747" y1="77.652" x2="212.747" y2="101.837"/>
			</g>
			<g>
				<line fill="none" stroke="#FF0000" stroke-width="0.25" x1="207.91" y1="77.652" x2="207.91" y2="101.837"/>
			</g>
			<g>
				<line fill="none" stroke="#FF0000" stroke-width="0.25" x1="203.074" y1="77.652" x2="203.074" y2="101.837"/>
			</g>
			<g>
				<line fill="none" stroke="#FF0000" stroke-width="0.25" x1="198.238" y1="77.652" x2="198.238" y2="101.837"/>
			</g>
			<g>
				<line fill="none" stroke="#FF0000" stroke-width="0.25" x1="193.401" y1="77.652" x2="193.401" y2="101.837"/>
			</g>
			<g>
				<line fill="none" stroke="#FF0000" stroke-width="0.25" x1="188.565" y1="77.652" x2="188.565" y2="101.837"/>
			</g>
			<g>
				<line fill="none" stroke="#FF0000" stroke-width="0.25" x1="183.728" y1="77.652" x2="183.728" y2="101.837"/>
			</g>
			<g>
				<line fill="none" stroke="#FF0000" stroke-width="0.25" x1="178.892" y1="77.652" x2="178.892" y2="101.837"/>
			</g>
			<g>
				<line fill="none" stroke="#FF0000" stroke-width="0.25" x1="174.056" y1="77.652" x2="174.056" y2="101.837"/>
			</g>
			<g>
				<line fill="none" stroke="#FF0000" stroke-width="0.25" x1="169.219" y1="77.652" x2="169.219" y2="101.837"/>
			</g>
			<g>
				<line fill="none" stroke="#FF0000" stroke-width="0.25" x1="164.382" y1="77.652" x2="164.382" y2="101.837"/>
			</g>
			<g>
				<line fill="none" stroke="#FF0000" stroke-width="0.25" x1="159.546" y1="77.652" x2="159.546" y2="101.837"/>
			</g>
		</g>
		<g>
			<g>
				<line fill="none" stroke="#FF0000" stroke-width="0.25" x1="278.041" y1="63.141" x2="278.041" y2="87.327"/>
			</g>
			<g>
				<line fill="none" stroke="#FF0000" stroke-width="0.25" x1="273.205" y1="63.141" x2="273.205" y2="87.327"/>
			</g>
			<g>
				<line fill="none" stroke="#FF0000" stroke-width="0.25" x1="268.369" y1="63.141" x2="268.369" y2="87.327"/>
			</g>
			<g>
				<line fill="none" stroke="#FF0000" stroke-width="0.25" x1="263.532" y1="63.141" x2="263.532" y2="87.327"/>
			</g>
			<g>
				<line fill="none" stroke="#FF0000" stroke-width="0.25" x1="258.696" y1="63.141" x2="258.696" y2="87.327"/>
			</g>
			<g>
				<line fill="none" stroke="#FF0000" stroke-width="0.25" x1="253.859" y1="63.141" x2="253.859" y2="87.327"/>
			</g>
			<g>
				<line fill="none" stroke="#FF0000" stroke-width="0.25" x1="249.022" y1="63.141" x2="249.022" y2="87.327"/>
			</g>
			<g>
				<line fill="none" stroke="#FF0000" stroke-width="0.25" x1="244.186" y1="63.141" x2="244.186" y2="87.327"/>
			</g>
			<g>
				<line fill="none" stroke="#FF0000" stroke-width="0.25" x1="239.349" y1="63.141" x2="239.349" y2="87.327"/>
			</g>
			<g>
				<line fill="none" stroke="#FF0000" stroke-width="0.25" x1="234.512" y1="63.141" x2="234.512" y2="87.327"/>
			</g>
			<g>
				<line fill="none" stroke="#FF0000" stroke-width="0.25" x1="229.676" y1="63.141" x2="229.676" y2="87.327"/>
			</g>
			<g>
				<line fill="none" stroke="#FF0000" stroke-width="0.25" x1="224.839" y1="63.141" x2="224.839" y2="87.327"/>
			</g>
			<g>
				<line fill="none" stroke="#FF0000" stroke-width="0.25" x1="220.002" y1="63.141" x2="220.002" y2="87.327"/>
			</g>
			<g>
				<line fill="none" stroke="#FF0000" stroke-width="0.25" x1="215.165" y1="63.141" x2="215.165" y2="87.327"/>
			</g>
			<g>
				<line fill="none" stroke="#FF0000" stroke-width="0.25" x1="210.328" y1="63.141" x2="210.328" y2="87.327"/>
			</g>
			<g>
				<line fill="none" stroke="#FF0000" stroke-width="0.25" x1="205.492" y1="63.141" x2="205.492" y2="87.327"/>
			</g>
			<g>
				<line fill="none" stroke="#FF0000" stroke-width="0.25" x1="200.655" y1="63.141" x2="200.655" y2="87.327"/>
			</g>
			<g>
				<line fill="none" stroke="#FF0000" stroke-width="0.25" x1="195.819" y1="63.141" x2="195.819" y2="87.327"/>
			</g>
			<g>
				<line fill="none" stroke="#FF0000" stroke-width="0.25" x1="190.983" y1="63.141" x2="190.983" y2="87.327"/>
			</g>
			<g>
				<line fill="none" stroke="#FF0000" stroke-width="0.25" x1="186.146" y1="63.141" x2="186.146" y2="87.327"/>
			</g>
			<g>
				<line fill="none" stroke="#FF0000" stroke-width="0.25" x1="181.31" y1="63.141" x2="181.31" y2="87.327"/>
			</g>
			<g>
				<line fill="none" stroke="#FF0000" stroke-width="0.25" x1="176.474" y1="63.141" x2="176.474" y2="87.327"/>
			</g>
			<g>
				<line fill="none" stroke="#FF0000" stroke-width="0.25" x1="171.637" y1="63.141" x2="171.637" y2="87.327"/>
			</g>
			<g>
				<line fill="none" stroke="#FF0000" stroke-width="0.25" x1="166.8" y1="63.141" x2="166.8" y2="87.327"/>
			</g>
			<g>
				<line fill="none" stroke="#FF0000" stroke-width="0.25" x1="161.964" y1="63.141" x2="161.964" y2="87.327"/>
			</g>
			<g>
				<line fill="none" stroke="#FF0000" stroke-width="0.25" x1="157.127" y1="63.141" x2="157.127" y2="87.327"/>
			</g>
		</g>
	</g>
	<g>
		<g>
			<g>
				<line fill="none" stroke="#FF0000" stroke-width="0.25" x1="280.46" y1="48.63" x2="280.46" y2="72.816"/>
			</g>
			<g>
				<line fill="none" stroke="#FF0000" stroke-width="0.25" x1="275.623" y1="48.63" x2="275.623" y2="72.816"/>
			</g>
			<g>
				<line fill="none" stroke="#FF0000" stroke-width="0.25" x1="270.788" y1="48.63" x2="270.788" y2="72.816"/>
			</g>
			<g>
				<line fill="none" stroke="#FF0000" stroke-width="0.25" x1="265.951" y1="48.63" x2="265.951" y2="72.816"/>
			</g>
			<g>
				<line fill="none" stroke="#FF0000" stroke-width="0.25" x1="261.114" y1="48.63" x2="261.114" y2="72.816"/>
			</g>
			<g>
				<line fill="none" stroke="#FF0000" stroke-width="0.25" x1="256.278" y1="48.63" x2="256.278" y2="72.816"/>
			</g>
			<g>
				<line fill="none" stroke="#FF0000" stroke-width="0.25" x1="251.441" y1="48.63" x2="251.441" y2="72.816"/>
			</g>
			<g>
				<line fill="none" stroke="#FF0000" stroke-width="0.25" x1="246.604" y1="48.63" x2="246.604" y2="72.816"/>
			</g>
			<g>
				<line fill="none" stroke="#FF0000" stroke-width="0.25" x1="241.768" y1="48.63" x2="241.768" y2="72.816"/>
			</g>
			<g>
				<line fill="none" stroke="#FF0000" stroke-width="0.25" x1="236.931" y1="48.63" x2="236.931" y2="72.816"/>
			</g>
			<g>
				<line fill="none" stroke="#FF0000" stroke-width="0.25" x1="232.094" y1="48.63" x2="232.094" y2="72.816"/>
			</g>
			<g>
				<line fill="none" stroke="#FF0000" stroke-width="0.25" x1="227.258" y1="48.63" x2="227.258" y2="72.816"/>
			</g>
			<g>
				<line fill="none" stroke="#FF0000" stroke-width="0.25" x1="222.421" y1="48.63" x2="222.421" y2="72.816"/>
			</g>
			<g>
				<line fill="none" stroke="#FF0000" stroke-width="0.25" x1="217.584" y1="48.63" x2="217.584" y2="72.816"/>
			</g>
			<g>
				<line fill="none" stroke="#FF0000" stroke-width="0.25" x1="212.747" y1="48.63" x2="212.747" y2="72.816"/>
			</g>
			<g>
				<line fill="none" stroke="#FF0000" stroke-width="0.25" x1="207.91" y1="48.63" x2="207.91" y2="72.816"/>
			</g>
			<g>
				<line fill="none" stroke="#FF0000" stroke-width="0.25" x1="203.074" y1="48.63" x2="203.074" y2="72.816"/>
			</g>
			<g>
				<line fill="none" stroke="#FF0000" stroke-width="0.25" x1="198.238" y1="48.63" x2="198.238" y2="72.816"/>
			</g>
			<g>
				<line fill="none" stroke="#FF0000" stroke-width="0.25" x1="193.401" y1="48.63" x2="193.401" y2="72.816"/>
			</g>
			<g>
				<line fill="none" stroke="#FF0000" stroke-width="0.25" x1="188.565" y1="48.63" x2="188.565" y2="72.816"/>
			</g>
			<g>
				<line fill="none" stroke="#FF0000" stroke-width="0.25" x1="183.728" y1="48.63" x2="183.728" y2="72.816"/>
			</g>
			<g>
				<line fill="none" stroke="#FF0000" stroke-width="0.25" x1="178.892" y1="48.63" x2="178.892" y2="72.816"/>
			</g>
			<g>
				<line fill="none" stroke="#FF0000" stroke-width="0.25" x1="174.056" y1="48.63" x2="174.056" y2="72.816"/>
			</g>
			<g>
				<line fill="none" stroke="#FF0000" stroke-width="0.25" x1="169.219" y1="48.63" x2="169.219" y2="72.816"/>
			</g>
			<g>
				<line fill="none" stroke="#FF0000" stroke-width="0.25" x1="164.382" y1="48.63" x2="164.382" y2="72.816"/>
			</g>
			<g>
				<line fill="none" stroke="#FF0000" stroke-width="0.25" x1="159.546" y1="48.63" x2="159.546" y2="72.816"/>
			</g>
		</g>
		<g>
			<g>
				<line fill="none" stroke="#FF0000" stroke-width="0.25" x1="278.041" y1="34.12" x2="278.041" y2="58.305"/>
			</g>
			<g>
				<line fill="none" stroke="#FF0000" stroke-width="0.25" x1="273.205" y1="34.12" x2="273.205" y2="58.305"/>
			</g>
			<g>
				<line fill="none" stroke="#FF0000" stroke-width="0.25" x1="268.369" y1="34.12" x2="268.369" y2="58.305"/>
			</g>
			<g>
				<line fill="none" stroke="#FF0000" stroke-width="0.25" x1="263.532" y1="34.12" x2="263.532" y2="58.305"/>
			</g>
			<g>
				<line fill="none" stroke="#FF0000" stroke-width="0.25" x1="258.696" y1="34.12" x2="258.696" y2="58.305"/>
			</g>
			<g>
				<line fill="none" stroke="#FF0000" stroke-width="0.25" x1="253.859" y1="34.12" x2="253.859" y2="58.305"/>
			</g>
			<g>
				<line fill="none" stroke="#FF0000" stroke-width="0.25" x1="249.022" y1="34.12" x2="249.022" y2="58.305"/>
			</g>
			<g>
				<line fill="none" stroke="#FF0000" stroke-width="0.25" x1="244.186" y1="34.12" x2="244.186" y2="58.305"/>
			</g>
			<g>
				<line fill="none" stroke="#FF0000" stroke-width="0.25" x1="239.349" y1="34.12" x2="239.349" y2="58.305"/>
			</g>
			<g>
				<line fill="none" stroke="#FF0000" stroke-width="0.25" x1="234.512" y1="34.12" x2="234.512" y2="58.305"/>
			</g>
			<g>
				<line fill="none" stroke="#FF0000" stroke-width="0.25" x1="229.676" y1="34.12" x2="229.676" y2="58.305"/>
			</g>
			<g>
				<line fill="none" stroke="#FF0000" stroke-width="0.25" x1="224.839" y1="34.12" x2="224.839" y2="58.305"/>
			</g>
			<g>
				<line fill="none" stroke="#FF0000" stroke-width="0.25" x1="220.002" y1="34.12" x2="220.002" y2="58.305"/>
			</g>
			<g>
				<line fill="none" stroke="#FF0000" stroke-width="0.25" x1="215.165" y1="34.12" x2="215.165" y2="58.305"/>
			</g>
			<g>
				<line fill="none" stroke="#FF0000" stroke-width="0.25" x1="210.328" y1="34.12" x2="210.328" y2="58.305"/>
			</g>
			<g>
				<line fill="none" stroke="#FF0000" stroke-width="0.25" x1="205.492" y1="34.12" x2="205.492" y2="58.305"/>
			</g>
			<g>
				<line fill="none" stroke="#FF0000" stroke-width="0.25" x1="200.655" y1="34.12" x2="200.655" y2="58.305"/>
			</g>
			<g>
				<line fill="none" stroke="#FF0000" stroke-width="0.25" x1="195.819" y1="34.12" x2="195.819" y2="58.305"/>
			</g>
			<g>
				<line fill="none" stroke="#FF0000" stroke-width="0.25" x1="190.983" y1="34.12" x2="190.983" y2="58.305"/>
			</g>
			<g>
				<line fill="none" stroke="#FF0000" stroke-width="0.25" x1="186.146" y1="34.12" x2="186.146" y2="58.305"/>
			</g>
			<g>
				<line fill="none" stroke="#FF0000" stroke-width="0.25" x1="181.31" y1="34.12" x2="181.31" y2="58.305"/>
			</g>
			<g>
				<line fill="none" stroke="#FF0000" stroke-width="0.25" x1="176.474" y1="34.12" x2="176.474" y2="58.305"/>
			</g>
			<g>
				<line fill="none" stroke="#FF0000" stroke-width="0.25" x1="171.637" y1="34.12" x2="171.637" y2="58.305"/>
			</g>
			<g>
				<line fill="none" stroke="#FF0000" stroke-width="0.25" x1="166.8" y1="34.12" x2="166.8" y2="58.305"/>
			</g>
			<g>
				<line fill="none" stroke="#FF0000" stroke-width="0.25" x1="161.964" y1="34.12" x2="161.964" y2="58.305"/>
			</g>
			<g>
				<line fill="none" stroke="#FF0000" stroke-width="0.25" x1="157.127" y1="34.12" x2="157.127" y2="58.305"/>
			</g>
		</g>
	</g>
	<g>
		<g>
			<g>
				<line fill="none" stroke="#FF0000" stroke-width="0.25" x1="280.46" y1="19.61" x2="280.46" y2="43.794"/>
			</g>
			<g>
				<line fill="none" stroke="#FF0000" stroke-width="0.25" x1="275.623" y1="19.61" x2="275.623" y2="43.794"/>
			</g>
			<g>
				<line fill="none" stroke="#FF0000" stroke-width="0.25" x1="270.788" y1="19.61" x2="270.788" y2="43.794"/>
			</g>
			<g>
				<line fill="none" stroke="#FF0000" stroke-width="0.25" x1="265.951" y1="19.61" x2="265.951" y2="43.794"/>
			</g>
			<g>
				<line fill="none" stroke="#FF0000" stroke-width="0.25" x1="261.114" y1="19.61" x2="261.114" y2="43.794"/>
			</g>
			<g>
				<line fill="none" stroke="#FF0000" stroke-width="0.25" x1="256.278" y1="19.61" x2="256.278" y2="43.794"/>
			</g>
			<g>
				<line fill="none" stroke="#FF0000" stroke-width="0.25" x1="251.441" y1="19.61" x2="251.441" y2="43.794"/>
			</g>
			<g>
				<line fill="none" stroke="#FF0000" stroke-width="0.25" x1="246.604" y1="19.61" x2="246.604" y2="43.794"/>
			</g>
			<g>
				<line fill="none" stroke="#FF0000" stroke-width="0.25" x1="241.768" y1="19.61" x2="241.768" y2="43.794"/>
			</g>
			<g>
				<line fill="none" stroke="#FF0000" stroke-width="0.25" x1="236.931" y1="19.61" x2="236.931" y2="43.794"/>
			</g>
			<g>
				<line fill="none" stroke="#FF0000" stroke-width="0.25" x1="232.094" y1="19.61" x2="232.094" y2="43.794"/>
			</g>
			<g>
				<line fill="none" stroke="#FF0000" stroke-width="0.25" x1="227.258" y1="19.61" x2="227.258" y2="43.794"/>
			</g>
			<g>
				<line fill="none" stroke="#FF0000" stroke-width="0.25" x1="222.421" y1="19.61" x2="222.421" y2="43.794"/>
			</g>
			<g>
				<line fill="none" stroke="#FF0000" stroke-width="0.25" x1="217.584" y1="19.61" x2="217.584" y2="43.794"/>
			</g>
			<g>
				<line fill="none" stroke="#FF0000" stroke-width="0.25" x1="212.747" y1="19.61" x2="212.747" y2="43.794"/>
			</g>
			<g>
				<line fill="none" stroke="#FF0000" stroke-width="0.25" x1="207.91" y1="19.61" x2="207.91" y2="43.794"/>
			</g>
			<g>
				<line fill="none" stroke="#FF0000" stroke-width="0.25" x1="203.074" y1="19.61" x2="203.074" y2="43.794"/>
			</g>
			<g>
				<line fill="none" stroke="#FF0000" stroke-width="0.25" x1="198.238" y1="19.61" x2="198.238" y2="43.794"/>
			</g>
			<g>
				<line fill="none" stroke="#FF0000" stroke-width="0.25" x1="193.401" y1="19.61" x2="193.401" y2="43.794"/>
			</g>
			<g>
				<line fill="none" stroke="#FF0000" stroke-width="0.25" x1="188.565" y1="19.61" x2="188.565" y2="43.794"/>
			</g>
			<g>
				<line fill="none" stroke="#FF0000" stroke-width="0.25" x1="183.728" y1="19.61" x2="183.728" y2="43.794"/>
			</g>
			<g>
				<line fill="none" stroke="#FF0000" stroke-width="0.25" x1="178.892" y1="19.61" x2="178.892" y2="43.794"/>
			</g>
			<g>
				<line fill="none" stroke="#FF0000" stroke-width="0.25" x1="174.056" y1="19.61" x2="174.056" y2="43.794"/>
			</g>
			<g>
				<line fill="none" stroke="#FF0000" stroke-width="0.25" x1="169.219" y1="19.61" x2="169.219" y2="43.794"/>
			</g>
			<g>
				<line fill="none" stroke="#FF0000" stroke-width="0.25" x1="164.382" y1="19.61" x2="164.382" y2="43.794"/>
			</g>
			<g>
				<line fill="none" stroke="#FF0000" stroke-width="0.25" x1="159.546" y1="19.61" x2="159.546" y2="43.794"/>
			</g>
		</g>
		<g>
			<g>
				<line fill="none" stroke="#FF0000" stroke-width="0.25" x1="278.041" y1="5.099" x2="278.041" y2="29.285"/>
			</g>
			<g>
				<line fill="none" stroke="#FF0000" stroke-width="0.25" x1="273.205" y1="5.099" x2="273.205" y2="29.285"/>
			</g>
			<g>
				<line fill="none" stroke="#FF0000" stroke-width="0.25" x1="268.369" y1="5.099" x2="268.369" y2="29.285"/>
			</g>
			<g>
				<line fill="none" stroke="#FF0000" stroke-width="0.25" x1="263.532" y1="5.099" x2="263.532" y2="29.285"/>
			</g>
			<g>
				<line fill="none" stroke="#FF0000" stroke-width="0.25" x1="258.696" y1="5.099" x2="258.696" y2="29.285"/>
			</g>
			<g>
				<line fill="none" stroke="#FF0000" stroke-width="0.25" x1="253.859" y1="5.099" x2="253.859" y2="29.285"/>
			</g>
			<g>
				<line fill="none" stroke="#FF0000" stroke-width="0.25" x1="249.022" y1="5.099" x2="249.022" y2="29.285"/>
			</g>
			<g>
				<line fill="none" stroke="#FF0000" stroke-width="0.25" x1="244.186" y1="5.099" x2="244.186" y2="29.285"/>
			</g>
			<g>
				<line fill="none" stroke="#FF0000" stroke-width="0.25" x1="239.349" y1="5.099" x2="239.349" y2="29.285"/>
			</g>
			<g>
				<line fill="none" stroke="#FF0000" stroke-width="0.25" x1="234.512" y1="5.099" x2="234.512" y2="29.285"/>
			</g>
			<g>
				<line fill="none" stroke="#FF0000" stroke-width="0.25" x1="229.676" y1="5.099" x2="229.676" y2="29.285"/>
			</g>
			<g>
				<line fill="none" stroke="#FF0000" stroke-width="0.25" x1="224.839" y1="5.099" x2="224.839" y2="29.285"/>
			</g>
			<g>
				<line fill="none" stroke="#FF0000" stroke-width="0.25" x1="220.002" y1="5.099" x2="220.002" y2="29.285"/>
			</g>
			<g>
				<line fill="none" stroke="#FF0000" stroke-width="0.25" x1="215.165" y1="5.099" x2="215.165" y2="29.285"/>
			</g>
			<g>
				<line fill="none" stroke="#FF0000" stroke-width="0.25" x1="210.328" y1="5.099" x2="210.328" y2="29.285"/>
			</g>
			<g>
				<line fill="none" stroke="#FF0000" stroke-width="0.25" x1="205.492" y1="5.099" x2="205.492" y2="29.285"/>
			</g>
			<g>
				<line fill="none" stroke="#FF0000" stroke-width="0.25" x1="200.655" y1="5.099" x2="200.655" y2="29.285"/>
			</g>
			<g>
				<line fill="none" stroke="#FF0000" stroke-width="0.25" x1="195.819" y1="5.099" x2="195.819" y2="29.285"/>
			</g>
			<g>
				<line fill="none" stroke="#FF0000" stroke-width="0.25" x1="190.983" y1="5.099" x2="190.983" y2="29.285"/>
			</g>
			<g>
				<line fill="none" stroke="#FF0000" stroke-width="0.25" x1="186.146" y1="5.099" x2="186.146" y2="29.285"/>
			</g>
			<g>
				<line fill="none" stroke="#FF0000" stroke-width="0.25" x1="181.31" y1="5.099" x2="181.31" y2="29.285"/>
			</g>
			<g>
				<line fill="none" stroke="#FF0000" stroke-width="0.25" x1="176.474" y1="5.099" x2="176.474" y2="29.285"/>
			</g>
			<g>
				<line fill="none" stroke="#FF0000" stroke-width="0.25" x1="171.637" y1="5.099" x2="171.637" y2="29.285"/>
			</g>
			<g>
				<line fill="none" stroke="#FF0000" stroke-width="0.25" x1="166.8" y1="5.099" x2="166.8" y2="29.285"/>
			</g>
			<g>
				<line fill="none" stroke="#FF0000" stroke-width="0.25" x1="161.964" y1="5.099" x2="161.964" y2="29.285"/>
			</g>
			<g>
				<line fill="none" stroke="#FF0000" stroke-width="0.25" x1="157.127" y1="5.099" x2="157.127" y2="29.285"/>
			</g>
		</g>
	</g>
</g>
</svg>
