<?xml version="1.0" encoding="utf-8"?>
<!-- Generator: Adobe Illustrator 17.0.0, SVG Export Plug-In . SVG Version: 6.00 Build 0)  -->
<!DOCTYPE svg PUBLIC "-//W3C//DTD SVG 1.1//EN" "http://www.w3.org/Graphics/SVG/1.1/DTD/svg11.dtd">
<svg version="1.1" id="Ebene_1" xmlns="http://www.w3.org/2000/svg" xmlns:xlink="http://www.w3.org/1999/xlink" x="0px" y="0px"
	 width="354.327px" height="283.463px" viewBox="0 0 354.327 283.463" enable-background="new 0 0 354.327 283.463"
	 xml:space="preserve">
<g>
	<rect x="11.589" y="14.173" fill="none" stroke="#FF0000" stroke-width="0.5" width="195.087" height="85.039"/>
	<rect x="15.274" y="69.45" fill="none" stroke="#FF0000" stroke-width="0.5" width="8.504" height="14.173"/>
	<rect x="15.274" y="29.765" fill="none" stroke="#FF0000" stroke-width="0.5" width="8.504" height="14.173"/>
	<rect x="194.601" y="69.45" fill="none" stroke="#FF0000" stroke-width="0.5" width="8.506" height="14.173"/>
	<rect x="194.601" y="29.765" fill="none" stroke="#FF0000" stroke-width="0.5" width="8.506" height="14.173"/>
</g>
<g>
	<polyline fill="none" stroke="#FF0000" stroke-width="0.5" points="206.676,184.252 11.589,184.252 11.589,99.213 	"/>
	<rect x="15.274" y="154.489" fill="none" stroke="#FF0000" stroke-width="0.5" width="8.504" height="14.173"/>
	<rect x="15.841" y="114.805" fill="none" stroke="#FF0000" stroke-width="0.5" width="8.504" height="14.173"/>
	<rect x="194.601" y="154.489" fill="none" stroke="#FF0000" stroke-width="0.5" width="8.506" height="14.173"/>
	<rect x="194.601" y="114.805" fill="none" stroke="#FF0000" stroke-width="0.5" width="8.506" height="14.173"/>
</g>
<g>
	<line fill="none" stroke="#FF0000" stroke-width="0.5" x1="255.701" y1="198.413" x2="225.577" y2="198.413"/>
	<line fill="none" stroke="#FF0000" stroke-width="0.5" x1="206.679" y1="28.337" x2="213.426" y2="28.337"/>
	<line fill="none" stroke="#FF0000" stroke-width="0.5" x1="274.709" y1="198.413" x2="267.855" y2="198.413"/>
	<path fill="none" stroke="#FF0000" stroke-width="0.5" d="M267.855,28.337c4.149,0,6.854,0,6.854,0"/>
	<path fill="none" stroke="#FF0000" stroke-width="0.5" d="M225.577,28.337c5.643,0,23.818,0,30.122,0"/>
	<path fill="none" stroke="#FF0000" stroke-width="0.5" d="M267.919,48.398V19.542l3.092,0.004
		c-0.677-2.505-1.418-4.289-2.921-4.319h-3.854v33.19c0,1.32-1.07,2.413-2.396,2.413c-1.321,0-2.396-1.093-2.396-2.413l-0.002-33.19
		h-3.854c-1.502,0.03-2.244,1.814-2.921,4.319l3.093-0.004v28.856"/>
	<path fill="none" stroke="#FF0000" stroke-width="0.5" d="M213.425,48.398V19.542l-3.092,0.004
		c0.677-2.505,1.418-4.289,2.921-4.319h3.854v33.19c0,1.32,1.07,2.413,2.396,2.413c1.321,0,2.396-1.093,2.396-2.413l0.002-33.19
		h3.854c1.502,0.03,2.244,1.814,2.921,4.319l-3.093-0.004v28.856"/>
	<path fill="none" stroke="#FF0000" stroke-width="0.5" d="M267.919,178.353v28.855l3.092-0.004
		c-0.677,2.506-1.418,4.289-2.921,4.318h-3.854v-33.186c0-1.322-1.07-2.413-2.396-2.413c-1.321,0-2.396,1.091-2.396,2.413
		l-0.002,33.186h-3.854c-1.502-0.029-2.244-1.812-2.921-4.318l3.093,0.004v-28.855"/>
	<path fill="none" stroke="#FF0000" stroke-width="0.5" d="M213.425,178.353v28.855l-3.092-0.004
		c0.677,2.506,1.418,4.289,2.921,4.318h3.854v-33.186c0-1.322,1.07-2.413,2.396-2.413c1.321,0,2.396,1.091,2.396,2.413l0.002,33.186
		h3.854c1.502-0.029,2.244-1.812,2.921-4.318l-3.093,0.004v-28.855"/>
</g>
<g>
	<line fill="none" stroke="#FF0000" stroke-width="0.5" x1="323.731" y1="198.413" x2="293.609" y2="198.413"/>
	<polyline fill="none" stroke="#FF0000" stroke-width="0.5" points="281.455,198.413 274.709,198.413 274.709,28.337 
		281.456,28.337 	"/>
	<path fill="none" stroke="#FF0000" stroke-width="0.5" d="M335.884,28.337c4.15,0,6.854,0,6.854,0v170.076h-6.854"/>
	<path fill="none" stroke="#FF0000" stroke-width="0.5" d="M293.609,28.337c5.644,0,23.82,0,30.122,0"/>
	<path fill="none" stroke="#FF0000" stroke-width="0.5" d="M335.951,48.398V19.542l3.092,0.004c-0.678-2.505-1.418-4.289-2.92-4.319
		h-3.855v33.19c0,1.32-1.071,2.413-2.395,2.413c-1.322,0-2.396-1.093-2.396-2.413l-0.001-33.19h-3.854
		c-1.502,0.03-2.244,1.814-2.922,4.319l3.094-0.004v28.856"/>
	<path fill="none" stroke="#FF0000" stroke-width="0.5" d="M281.456,48.398V19.542l-3.091,0.004c0.676-2.505,1.418-4.289,2.92-4.319
		h3.854v33.19c0,1.32,1.07,2.413,2.396,2.413c1.321,0,2.396-1.093,2.396-2.413v-33.19h3.855c1.502,0.03,2.245,1.814,2.921,4.319
		l-3.092-0.004v28.856"/>
	<path fill="none" stroke="#FF0000" stroke-width="0.5" d="M335.951,178.353v28.855l3.092-0.004
		c-0.678,2.506-1.418,4.289-2.92,4.318h-3.855v-33.186c0-1.322-1.071-2.413-2.395-2.413c-1.322,0-2.396,1.091-2.396,2.413
		l-0.001,33.186h-3.854c-1.502-0.029-2.244-1.812-2.922-4.318l3.094,0.004v-28.855"/>
	<path fill="none" stroke="#FF0000" stroke-width="0.5" d="M281.456,178.353v28.855l-3.091-0.004
		c0.676,2.506,1.418,4.289,2.92,4.318h3.854v-33.186c0-1.322,1.07-2.413,2.396-2.413c1.321,0,2.396,1.091,2.396,2.413v33.186h3.855
		c1.502-0.029,2.245-1.812,2.921-4.318l-3.092,0.004v-28.855"/>
</g>
<g>
	<g>
		<line fill="none" stroke="#FF0000" stroke-width="0.5" x1="25.931" y1="240.172" x2="25.931" y2="212.682"/>
		<polyline fill="none" stroke="#FF0000" stroke-width="0.5" points="93.963,252.307 93.963,269.29 25.931,269.29 25.931,252.307 		
			"/>
		<line fill="none" stroke="#FF0000" stroke-width="0.5" x1="93.963" y1="212.716" x2="93.963" y2="240.172"/>
		<line fill="none" stroke="#FF0000" stroke-width="0.5" x1="93.963" y1="184.251" x2="93.963" y2="200.49"/>
		<line fill="none" stroke="#FF0000" stroke-width="0.5" x1="25.931" y1="200.522" x2="25.931" y2="184.251"/>
	</g>
	<path fill="none" stroke="#FF0000" stroke-width="0.5" d="M45.954,200.522H17.095l0.004-3.091
		c-2.505,0.676-4.289,1.419-4.319,2.921v3.855l33.19-0.002c1.322,0,2.413,1.07,2.413,2.396s-1.091,2.396-2.413,2.396H12.78v3.855
		c0.03,1.502,1.814,2.245,4.319,2.921l-0.004-3.091h28.858"/>
	<path fill="none" stroke="#FF0000" stroke-width="0.5" d="M73.595,200.522h28.857l-0.004-3.091
		c2.506,0.676,4.289,1.419,4.319,2.921v3.855l-33.19-0.002c-1.321,0-2.412,1.07-2.412,2.396s1.091,2.396,2.412,2.396h33.19v3.855
		c-0.03,1.502-1.813,2.245-4.319,2.921l0.004-3.091H73.595"/>
	<path fill="none" stroke="#FF0000" stroke-width="0.5" d="M45.954,252.336H17.095l0.004,3.092c-2.505-0.676-4.289-1.418-4.319-2.92
		v-3.855h33.19c1.322,0,2.413-1.07,2.413-2.395s-1.091-2.396-2.413-2.396l-33.19-0.001v-3.854c0.03-1.502,1.814-2.244,4.319-2.92
		l-0.004,3.092h28.858"/>
	<path fill="none" stroke="#FF0000" stroke-width="0.5" d="M73.595,252.336h28.857l-0.004,3.092c2.506-0.676,4.289-1.418,4.319-2.92
		v-3.855h-33.19c-1.321,0-2.412-1.07-2.412-2.395s1.091-2.396,2.412-2.396l33.19-0.001v-3.854c-0.03-1.502-1.813-2.244-4.319-2.92
		l0.004,3.092H73.595"/>
	<rect x="31.6" y="256.486" fill="none" stroke="#FF0000" stroke-width="0.5" width="14.173" height="8.504"/>
	<rect x="74.121" y="256.486" fill="none" stroke="#FF0000" stroke-width="0.5" width="14.173" height="8.504"/>
	<rect x="31.6" y="188.503" fill="none" stroke="#FF0000" stroke-width="0.5" width="14.173" height="8.504"/>
	<rect x="74.121" y="188.503" fill="none" stroke="#FF0000" stroke-width="0.5" width="14.173" height="8.504"/>
</g>
<g>
	<g>
		<line fill="none" stroke="#FF0000" stroke-width="0.5" x1="122.641" y1="240.172" x2="122.641" y2="212.682"/>
		<polyline fill="none" stroke="#FF0000" stroke-width="0.5" points="190.664,252.307 190.664,269.29 122.641,269.29 
			122.641,252.307 		"/>
		<line fill="none" stroke="#FF0000" stroke-width="0.5" x1="190.664" y1="212.716" x2="190.664" y2="240.172"/>
		<line fill="none" stroke="#FF0000" stroke-width="0.5" x1="190.664" y1="184.251" x2="190.664" y2="200.49"/>
		<line fill="none" stroke="#FF0000" stroke-width="0.5" x1="122.641" y1="200.522" x2="122.641" y2="184.251"/>
	</g>
	<path fill="none" stroke="#FF0000" stroke-width="0.5" d="M142.656,200.522h-28.842l0.005-3.091
		c-2.506,0.676-4.289,1.419-4.319,2.921v3.855l33.175-0.002c1.322,0,2.412,1.07,2.412,2.396s-1.09,2.396-2.412,2.396h-33.177v3.855
		c0.03,1.502,1.813,2.245,4.319,2.921l-0.005-3.091h28.843"/>
	<path fill="none" stroke="#FF0000" stroke-width="0.5" d="M170.296,200.522h28.859l-0.006-3.091
		c2.506,0.676,4.289,1.419,4.318,2.921v3.855l-33.188-0.002c-1.322,0-2.414,1.07-2.414,2.396s1.092,2.396,2.414,2.396h33.188v3.855
		c-0.029,1.502-1.812,2.245-4.318,2.921l0.006-3.091h-28.859"/>
	<path fill="none" stroke="#FF0000" stroke-width="0.5" d="M142.656,252.336h-28.842l0.005,3.092
		c-2.506-0.676-4.289-1.418-4.319-2.92v-3.855h33.175c1.322,0,2.412-1.07,2.412-2.395s-1.09-2.396-2.412-2.396l-33.175-0.001v-3.854
		c0.03-1.502,1.813-2.244,4.319-2.92l-0.005,3.092h28.843"/>
	<path fill="none" stroke="#FF0000" stroke-width="0.5" d="M170.296,252.336h28.859l-0.006,3.092
		c2.506-0.676,4.289-1.418,4.318-2.92v-3.855h-33.188c-1.322,0-2.414-1.07-2.414-2.395s1.092-2.396,2.414-2.396l33.188-0.001v-3.854
		c-0.029-1.502-1.812-2.244-4.318-2.92l0.006,3.092h-28.859"/>
	<rect x="128.302" y="256.486" fill="none" stroke="#FF0000" stroke-width="0.5" width="14.174" height="8.504"/>
	<rect x="170.823" y="256.486" fill="none" stroke="#FF0000" stroke-width="0.5" width="14.174" height="8.504"/>
	<rect x="128.302" y="188.503" fill="none" stroke="#FF0000" stroke-width="0.5" width="14.174" height="8.504"/>
	<rect x="170.823" y="188.503" fill="none" stroke="#FF0000" stroke-width="0.5" width="14.174" height="8.504"/>
</g>
<polyline fill="none" stroke="#FF0000" stroke-width="0.5" points="206.676,99.213 206.676,184.252 206.679,198.413 
	213.424,198.413 "/>
</svg>
