<?xml version="1.0" encoding="utf-8"?>
<!-- Generator: Adobe Illustrator 17.0.0, SVG Export Plug-In . SVG Version: 6.00 Build 0)  -->
<!DOCTYPE svg PUBLIC "-//W3C//DTD SVG 1.1//EN" "http://www.w3.org/Graphics/SVG/1.1/DTD/svg11.dtd">
<svg version="1.1" xmlns="http://www.w3.org/2000/svg" xmlns:xlink="http://www.w3.org/1999/xlink" x="0px" y="0px"
	 width="65.345px" height="64.845px" viewBox="0 -8.155 65.345 64.845" enable-background="new 0 -8.155 65.345 64.845"
	 xml:space="preserve">
<g id="Cut_2_">
	<g id="Cut">
		<circle fill="none" stroke="#FF0000" stroke-width="0.5" stroke-miterlimit="10" cx="32.672" cy="24.267" r="27.657"/>
	</g>
</g>
<g id="Mark_1_">
	<circle fill="none" stroke="#66B32E" stroke-width="0.5" stroke-miterlimit="10" cx="32.672" cy="24.267" r="24.094"/>
</g>
<g id="Engrave_1_">
	<g>
		<path fill="#0000FF" d="M45.717,23.325c-0.988-1.161-2.429-1.258-3.762-0.809c-1.383,0.471-2.368,1.283-3.316,2.345
			c-1.709,1.91-3.04,4.816-2.893,7.479c0.191,3.432,2.781,4.774,5.754,3.116c2.328-1.295,4.095-3.939,4.816-6.416
			c1.024-0.593,2.046-1.183,3.071-1.776c0,2.227,0,4.451,0,6.674c-5.348,3.093-10.693,6.184-16.04,9.274
			c0.026,0.769,0.055,1.542,0.081,2.314c15.67-0.558,25.351-17.353,18.001-31.225c-0.681,0.362-1.362,0.726-2.043,1.085
			c0,1.939,0,3.875,0,5.812C48.163,21.91,46.94,22.616,45.717,23.325z"/>
		<path fill="#0000FF" d="M25.331,13.438c-0.509,1.436,0.126,2.733,1.181,3.662c1.098,0.967,2.293,1.416,3.682,1.706
			c2.507,0.527,5.683,0.231,7.914-1.23c2.87-1.88,2.736-4.797-0.182-6.55c-2.284-1.371-5.455-1.579-7.954-0.969
			c-1.025-0.588-2.049-1.183-3.072-1.776c1.923-1.113,3.845-2.225,5.771-3.337c5.344,3.092,10.692,6.182,16.036,9.276
			c0.654-0.41,1.307-0.819,1.961-1.231c-8.315-13.309-27.674-13.309-35.994,0c0.655,0.41,1.309,0.821,1.961,1.231
			c1.675-0.97,3.352-1.938,5.024-2.908C22.883,12.022,24.107,12.729,25.331,13.438z"/>
		<path fill="#0000FF" d="M26.974,36.063c1.498-0.273,2.304-1.477,2.578-2.857c0.286-1.437,0.074-2.697-0.368-4.048
			c-0.796-2.44-2.643-5.049-5.02-6.252c-3.063-1.548-5.521,0.028-5.574,3.437c-0.043,2.665,1.364,5.515,3.14,7.383
			c0,1.181,0,2.368,0,3.552c-1.922-1.113-3.847-2.225-5.77-3.34c0-6.185,0-12.366,0-18.55c-0.681-0.361-1.362-0.724-2.043-1.083
			C6.566,28.179,16.246,44.97,31.916,45.528c0.027-0.773,0.056-1.543,0.08-2.312c-1.674-0.969-3.348-1.94-5.023-2.909
			C26.974,38.891,26.974,37.48,26.974,36.063z"/>
	</g>
</g>
</svg>
