<?xml version="1.0" encoding="utf-8"?>
<!-- Generator: Adobe Illustrator 17.0.0, SVG Export Plug-In . SVG Version: 6.00 Build 0)  -->
<!DOCTYPE svg PUBLIC "-//W3C//DTD SVG 1.1//EN" "http://www.w3.org/Graphics/SVG/1.1/DTD/svg11.dtd">
<svg version="1.1" id="Ebene_1" xmlns="http://www.w3.org/2000/svg" xmlns:xlink="http://www.w3.org/1999/xlink" x="0px" y="0px"
	 width="311.811px" height="70.866px" viewBox="0 0 311.811 70.866" enable-background="new 0 0 311.811 70.866"
	 xml:space="preserve">
<g>
	<path fill="#2A4B9B" stroke="#E52420" stroke-width="0.5" stroke-miterlimit="10" d="M63.349,47.435h-5.85V23.06h13.365v5.443
		h-7.515v3.819h7.108v5.443h-7.108V47.435z"/>
	<path fill="#2A4B9B" stroke="#E52420" stroke-width="0.5" stroke-miterlimit="10" d="M78.379,48.247l-5.85-1.3l8.734-23.887h4.956
		l8.734,23.887l-5.85,1.3L87.6,43.332h-7.718L78.379,48.247z M83.741,30.657l-2.193,7.231h4.387L83.741,30.657z"/>
	<path fill="#2A4B9B" stroke="#E52420" stroke-width="0.5" stroke-miterlimit="10" d="M109.738,34.435
		c3.047,0.812,4.672,3.006,4.672,5.89c0,4.632-4.265,7.109-9.546,7.109h-7.312V23.06h6.906c4.672,0,8.938,1.788,8.938,6.094
		C113.395,31.591,112.176,33.419,109.738,34.435z M104.457,32.404c2.031,0,3.25-0.609,3.25-2.235c0-1.137-0.934-1.828-3.25-1.828
		h-1.015v4.062H104.457z M104.66,42.154c2.641,0,3.859-0.813,3.859-2.438c0-1.828-1.219-2.437-3.859-2.437h-1.219v4.876H104.66z"/>
	<path fill="#2A4B9B" stroke="#E52420" stroke-width="0.5" stroke-miterlimit="10" d="M123.122,41.991h8.531v5.444h-14.381V23.06
		h5.85V41.991z"/>
	<path fill="#2A4B9B" stroke="#E52420" stroke-width="0.5" stroke-miterlimit="10" d="M138.639,48.247l-5.85-1.3l8.734-23.887h4.956
		l8.734,23.887l-5.85,1.3l-1.503-4.915h-7.718L138.639,48.247z M144.001,30.657l-2.193,7.231h4.387L144.001,30.657z"/>
	<path fill="#2A4B9B" stroke="#E52420" stroke-width="0.5" stroke-miterlimit="10" d="M169.999,34.435
		c3.047,0.812,4.672,3.006,4.672,5.89c0,4.632-4.266,7.109-9.547,7.109h-7.312V23.06h6.906c4.672,0,8.938,1.788,8.938,6.094
		C173.655,31.591,172.437,33.419,169.999,34.435z M164.718,32.404c2.032,0,3.25-0.609,3.25-2.235c0-1.137-0.935-1.828-3.25-1.828
		h-1.015v4.062H164.718z M164.921,42.154c2.641,0,3.859-0.813,3.859-2.438c0-1.828-1.219-2.437-3.859-2.437h-1.219v4.876H164.921z"
		/>
	<path fill="#2A4B9B" stroke="#E52420" stroke-width="0.5" stroke-miterlimit="10" d="M201.284,34.435
		c3.047,0.812,4.672,3.006,4.672,5.89c0,4.632-4.265,7.109-9.546,7.109h-7.312V23.06h6.906c4.672,0,8.937,1.788,8.937,6.094
		C204.941,31.591,203.722,33.419,201.284,34.435z M196.004,32.404c2.031,0,3.25-0.609,3.25-2.235c0-1.137-0.934-1.828-3.25-1.828
		h-1.016v4.062H196.004z M196.207,42.154c2.64,0,3.859-0.813,3.859-2.438c0-1.828-1.219-2.437-3.859-2.437h-1.219v4.876H196.207z"/>
	<path fill="#2A4B9B" stroke="#E52420" stroke-width="0.5" stroke-miterlimit="10" d="M215.095,41.991h8.734v5.444h-14.584V23.06
		h14.178v5.443h-8.328v3.412h7.109v5.444h-7.109V41.991z"/>
	<path fill="#2A4B9B" stroke="#E52420" stroke-width="0.5" stroke-miterlimit="10" d="M239.631,37.888l6.54,7.799l-5.159,2.56
		l-6.906-8.856h-0.893v8.044h-5.85V23.06h6.784c4.915,0,9.587,3.25,9.587,8.165C243.734,33.907,242.271,36.466,239.631,37.888z
		 M233.212,33.947h0.934c1.788,0,3.656-0.934,3.656-2.722c0-1.788-0.934-2.722-3.656-2.722h-0.934V33.947z"/>
	<path fill="#2A4B9B" stroke="#E52420" stroke-width="0.5" stroke-miterlimit="10" d="M254.417,41.991h8.531v5.444h-14.381V23.06
		h5.85V41.991z"/>
	<path fill="#2A4B9B" stroke="#E52420" stroke-width="0.5" stroke-miterlimit="10" d="M272.492,23.06v24.375h-5.931V23.06H272.492z"
		/>
	<path fill="#2A4B9B" stroke="#E52420" stroke-width="0.5" stroke-miterlimit="10" d="M291.788,47.435l-8.369-13.812v13.812h-5.85
		V23.06h5.85l8.369,13.812V23.06h5.85v24.375H291.788z"/>
	<g>
		<path fill="#2A4B9B" stroke="#E52420" stroke-width="0.5" stroke-miterlimit="10" d="M183.445,44.918
			c0,1.385-1.13,2.515-2.515,2.515c-1.385,0-2.515-1.13-2.515-2.515c0-1.385,1.13-2.515,2.515-2.515
			C182.315,42.402,183.445,43.533,183.445,44.918z"/>
	</g>
	<g>
		<path fill="#2A4B9B" stroke="#E52420" stroke-width="0.5" stroke-miterlimit="10" d="M43.316,34.633
			c-0.839-0.985-2.063-1.067-3.196-0.686c-1.175,0.4-2.012,1.088-2.817,1.989c-1.452,1.62-2.582,4.085-2.458,6.344
			c0.162,2.912,2.363,4.05,4.888,2.643c1.978-1.099,3.479-3.342,4.091-5.442c0.87-0.503,1.738-1.003,2.609-1.506
			c0,1.889,0,3.776,0,5.661c-4.543,2.624-9.084,5.245-13.626,7.867c0.022,0.652,0.047,1.308,0.069,1.963
			c13.312-0.473,21.537-14.72,15.293-26.486c-0.579,0.307-1.157,0.616-1.735,0.921c0,1.645,0,3.287,0,4.93
			C45.394,33.433,44.355,34.031,43.316,34.633z"/>
		<path fill="#2A4B9B" stroke="#E52420" stroke-width="0.5" stroke-miterlimit="10" d="M25.997,26.247
			c-0.433,1.218,0.107,2.318,1.004,3.107c0.933,0.82,1.948,1.201,3.128,1.447c2.13,0.447,4.828,0.196,6.723-1.043
			c2.439-1.595,2.324-4.069-0.155-5.556c-1.941-1.163-4.635-1.339-6.758-0.822c-0.871-0.499-1.741-1.003-2.61-1.507
			c1.634-0.944,3.266-1.887,4.903-2.831c4.54,2.623,9.083,5.244,13.623,7.868c0.556-0.348,1.111-0.695,1.666-1.044
			c-7.064-11.289-23.51-11.289-30.579,0c0.557,0.348,1.112,0.696,1.666,1.044c1.423-0.823,2.847-1.644,4.268-2.467
			C23.917,25.046,24.957,25.645,25.997,26.247z"/>
		<path fill="#2A4B9B" stroke="#E52420" stroke-width="0.5" stroke-miterlimit="10" d="M27.393,45.438
			c1.273-0.232,1.957-1.253,2.19-2.424c0.243-1.219,0.062-2.288-0.312-3.434c-0.676-2.069-2.245-4.283-4.265-5.303
			c-2.603-1.313-4.691,0.024-4.735,2.915c-0.036,2.261,1.159,4.678,2.667,6.262c0,1.002,0,2.009,0,3.013
			c-1.633-0.944-3.268-1.887-4.902-2.833c0-5.246,0-10.489,0-15.735c-0.578-0.306-1.157-0.614-1.735-0.919
			C10.055,38.75,18.28,52.993,31.592,53.467c0.023-0.655,0.047-1.309,0.068-1.961c-1.422-0.822-2.844-1.646-4.267-2.467
			C27.393,47.837,27.393,46.64,27.393,45.438z"/>
	</g>
</g>
</svg>
