<?xml version="1.0" encoding="utf-8"?>
<!-- Generator: Adobe Illustrator 17.0.0, SVG Export Plug-In . SVG Version: 6.00 Build 0)  -->
<!DOCTYPE svg PUBLIC "-//W3C//DTD SVG 1.1//EN" "http://www.w3.org/Graphics/SVG/1.1/DTD/svg11.dtd">
<svg version="1.1" xmlns="http://www.w3.org/2000/svg" xmlns:xlink="http://www.w3.org/1999/xlink" x="0px" y="0px"
	 width="311.811px" height="70.866px" viewBox="-17.897 -11.156 311.811 70.866"
	 enable-background="new -17.897 -11.156 311.811 70.866" xml:space="preserve">
<g id="Engrave_1_">
	<g id="Engrave">
		<g>
			<path fill="#0000FF" d="M23.152,25.663L28.12,9.607h6.264l2.196,5.364v24.012h-4.032l-2.196-5.364l0.036-5.436l-3.6,10.8h-4.356
				l-2.196-5.364l-3.6-10.8l0.108,16.164h-4.068l-2.196-5.364V9.607h6.228l2.196,5.364l3.924,12.384L23.152,25.663z M10.912,10.075
				v23.112h3.204l-0.144-15.804l-0.036-1.584L13.9,14.431v-0.612c0-0.024,0-0.066,0-0.126s0-0.21,0-0.45s0.006-0.6,0.018-1.08
				s0.018-1.176,0.018-2.088H10.912z M28.48,10.075l-4.896,15.732c-0.144,0.625-0.252,1.14-0.324,1.548
				c-0.072,0.409-0.144,0.834-0.216,1.278s-0.144,0.984-0.216,1.62c-0.072,0.636-0.168,1.506-0.288,2.61
				c-0.192-1.272-0.342-2.298-0.45-3.078c-0.108-0.78-0.198-1.41-0.27-1.89c-0.072-0.479-0.144-0.864-0.216-1.152
				s-0.144-0.588-0.216-0.9l-5.004-15.768h-2.412c0.216,1.152,0.39,2.076,0.522,2.772c0.131,0.696,0.222,1.176,0.27,1.44
				c0,0.072,0.005,0.144,0.018,0.216c0.012,0.072,0.03,0.18,0.054,0.324c0.023,0.144,0.06,0.348,0.108,0.612
				c0.048,0.265,0.12,0.648,0.216,1.152l0.252,1.224l0.18,0.576l4.968,14.796h3.708l4.932-14.76
				c0.144-0.528,0.288-1.116,0.432-1.764l0.36-1.836c0.047-0.24,0.102-0.48,0.162-0.72c0.06-0.239,0.114-0.491,0.162-0.756
				l0.576-2.556c0.023,0.816,0.042,1.446,0.054,1.89c0.012,0.444,0.018,0.78,0.018,1.008s0,0.384,0,0.468c0,0.084,0,0.162,0,0.234
				c0,0.048,0,0.229,0,0.54c0,0.312-0.012,0.708-0.036,1.188l-0.036,1.404l-0.108,15.66h3.168V10.075H28.48z"/>
			<path fill="#0000FF" d="M63.58,38.983h-4.32l-2.196-5.364l-0.468-1.368h-8.46l-2.268,6.732h-4.284l-2.196-5.364L47.38,9.607
				h6.048l2.196,5.364L63.58,38.983z M55.155,26.419l2.196,6.768h3.42l-7.668-23.112h-5.4L40,33.187h3.384l2.232-6.768H55.155z
				 M46.372,23.611l3.96-12.168l3.996,12.168H46.372z M53.716,23.179l-1.404-4.284l-1.368,4.284H53.716z"/>
			<path fill="#0000FF" d="M79.132,9.607h5.292l2.196,5.364l-8.748,10.476l6.876,8.172l2.196,5.364h-5.328l-8.172-10.116
				c-0.121-0.12-0.222-0.24-0.306-0.36s-0.174-0.24-0.27-0.36l-0.036-0.072l-0.036-0.036l-0.072-0.072l0.108,11.016H68.62
				l-2.196-5.364V9.607h4.284l2.196,5.364v2.34L79.132,9.607z M66.856,33.187h3.312l-0.072-12.024l0.072,0.144l0.108-11.232h-3.42
				V33.187z M71.86,19.291c-0.265,0.312-0.499,0.618-0.702,0.918c-0.204,0.3-0.486,0.727-0.846,1.278
				c0.312,0.456,0.558,0.816,0.738,1.08s0.354,0.492,0.522,0.684l8.028,9.936h4.212l-9.864-11.664l9.54-11.448h-4.176L71.86,19.291z
				"/>
			<path fill="#0000FF" d="M107.463,18.967h-11.52v0.612h9.324l2.196,5.364v3.816h-11.52v1.152h9.324l2.196,5.364v3.708H91.911
				l-2.196-5.364V9.607h15.552l2.196,5.364C107.463,14.971,107.463,18.967,107.463,18.967z M90.147,33.187h14.652v-2.808H93.315
				v-7.416h11.484v-2.952H93.315v-6.84h11.484v-3.096H90.147V33.187z"/>
			<path fill="#0000FF" d="M129.423,33.619l2.196,5.364h-5.256l-7.452-8.928c-0.144-0.192-0.318-0.444-0.522-0.756
				s-0.354-0.552-0.45-0.72l-0.036-0.072v10.476h-4.14l-2.196-5.364V9.607h8.64c0.744,0,1.38,0.013,1.908,0.036
				c0.528,0.024,0.996,0.072,1.404,0.144c0.408,0.072,0.779,0.162,1.116,0.27c0.336,0.108,0.672,0.247,1.008,0.414
				c1.175,0.625,2.04,1.596,2.592,2.916l2.196,5.364c0.336,0.864,0.504,1.789,0.504,2.772c0,1.464-0.348,2.736-1.044,3.816
				c-0.697,1.08-1.668,1.848-2.916,2.304c-0.336,0.121-0.661,0.222-0.972,0.306c-0.312,0.084-0.708,0.162-1.188,0.234
				L129.423,33.619z M111.999,33.187h3.276V21.379c0.24,0.432,0.432,0.792,0.576,1.08s0.282,0.535,0.414,0.738
				c0.132,0.204,0.258,0.396,0.378,0.576c0.12,0.18,0.264,0.391,0.432,0.63l7.308,8.784h4.104l-8.928-10.584
				c0.815-0.048,1.476-0.09,1.98-0.126c0.504-0.036,0.923-0.078,1.26-0.126c0.336-0.048,0.63-0.102,0.882-0.162
				c0.252-0.06,0.522-0.149,0.81-0.27c1.224-0.408,2.166-1.116,2.826-2.124c0.66-1.008,0.99-2.219,0.99-3.636
				c0-1.176-0.252-2.226-0.756-3.15c-0.504-0.924-1.212-1.626-2.124-2.106c-0.312-0.168-0.624-0.306-0.936-0.414
				s-0.666-0.192-1.062-0.252c-0.396-0.06-0.852-0.102-1.368-0.126c-0.517-0.024-1.134-0.036-1.854-0.036h-8.208L111.999,33.187
				L111.999,33.187z M119.811,12.991c0.984,0,1.728,0.042,2.232,0.126c0.504,0.084,0.959,0.246,1.368,0.486
				c0.48,0.288,0.852,0.714,1.116,1.278s0.396,1.194,0.396,1.89c0,1.44-0.54,2.533-1.62,3.276c-0.456,0.312-0.954,0.528-1.494,0.648
				s-1.267,0.18-2.178,0.18h-4.356v-7.884C115.275,12.991,119.811,12.991,119.811,12.991z M119.631,20.443
				c1.152,0,2.046-0.12,2.682-0.36c0.636-0.239,1.158-0.648,1.566-1.224c-0.36-0.048-0.661-0.072-0.9-0.072c-0.24,0-0.564,0-0.972,0
				h-4.104v1.656H119.631z"/>
			<path fill="#0000FF" d="M150.806,21.847l-0.216-0.216c-0.552-0.624-1.032-1.098-1.44-1.422c-0.408-0.324-0.9-0.618-1.476-0.882
				c-1.224-0.576-2.448-0.864-3.672-0.864c-1.08,0-2.04,0.3-2.88,0.9c0.24,0.072,0.426,0.12,0.558,0.144
				c0.131,0.024,0.378,0.096,0.738,0.216c0.96,0.24,1.794,0.492,2.502,0.756c0.708,0.265,1.314,0.564,1.818,0.9
				s0.93,0.715,1.278,1.134c0.348,0.42,0.642,0.918,0.882,1.494l2.196,5.364c0.312,0.72,0.468,1.572,0.468,2.556
				c0,1.08-0.204,2.082-0.612,3.006c-0.409,0.924-0.972,1.716-1.692,2.376s-1.579,1.176-2.574,1.548
				c-0.996,0.372-2.083,0.558-3.258,0.558c-2.544,0-4.873-0.864-6.984-2.592l-2.196-5.364v-4.608l0.216,0.216
				c0.576,0.648,1.074,1.146,1.494,1.494c0.419,0.348,0.894,0.654,1.422,0.918c1.2,0.625,2.448,0.936,3.744,0.936
				c1.512,0,2.664-0.419,3.456-1.26c-0.265-0.072-0.474-0.132-0.63-0.18c-0.157-0.048-0.414-0.108-0.774-0.18
				c-1.104-0.264-2.04-0.534-2.808-0.81c-0.769-0.276-1.422-0.588-1.962-0.936c-0.54-0.348-0.99-0.738-1.35-1.17
				s-0.661-0.936-0.9-1.512l-2.196-5.364c-0.312-0.768-0.468-1.62-0.468-2.556c0-1.08,0.204-2.064,0.612-2.952
				c0.408-0.888,0.972-1.656,1.692-2.304s1.584-1.152,2.592-1.512c1.008-0.36,2.111-0.54,3.312-0.54
				c1.224,0,2.399,0.186,3.528,0.558c1.128,0.372,2.184,0.942,3.168,1.71c0.023,0.024,0.048,0.042,0.072,0.054
				c0.023,0.013,0.072,0.042,0.144,0.09l2.196,5.364L150.806,21.847L150.806,21.847z M148.178,11.803
				c-1.08-0.768-2.124-1.326-3.132-1.674c-1.008-0.347-2.124-0.522-3.348-0.522c-1.152,0-2.202,0.168-3.15,0.504
				c-0.948,0.336-1.764,0.81-2.448,1.422c-0.684,0.612-1.218,1.332-1.602,2.16s-0.576,1.746-0.576,2.754
				c0,1.008,0.198,1.914,0.594,2.718c0.396,0.805,0.978,1.482,1.746,2.034c0.479,0.336,1.134,0.66,1.962,0.972
				s1.782,0.588,2.862,0.828c1.032,0.24,1.842,0.486,2.43,0.738s1.05,0.558,1.386,0.918c0.6,0.624,0.9,1.404,0.9,2.34
				c0,1.152-0.432,2.088-1.296,2.808c-0.864,0.72-1.992,1.08-3.384,1.08c-2.424,0-4.572-0.972-6.444-2.916v3.276
				c1.127,0.864,2.189,1.476,3.186,1.836c0.996,0.36,2.118,0.54,3.366,0.54c1.128,0,2.16-0.174,3.096-0.522
				c0.936-0.348,1.746-0.833,2.43-1.458c0.684-0.624,1.218-1.368,1.602-2.232s0.576-1.812,0.576-2.844
				c0-1.008-0.198-1.919-0.594-2.736c-0.396-0.815-0.978-1.5-1.746-2.052c-0.432-0.312-1.014-0.605-1.746-0.882
				c-0.732-0.275-1.566-0.534-2.502-0.774c-1.128-0.264-1.98-0.492-2.556-0.684s-1.032-0.408-1.368-0.648
				c-0.768-0.552-1.152-1.355-1.152-2.412c0-0.527,0.114-1.014,0.342-1.458s0.545-0.833,0.954-1.17
				c0.408-0.336,0.888-0.6,1.44-0.792c0.552-0.192,1.152-0.288,1.8-0.288c0.768,0,1.584,0.126,2.448,0.378s1.644,0.583,2.34,0.99
				c0.264,0.192,0.504,0.378,0.72,0.558c0.216,0.18,0.504,0.438,0.864,0.774L148.178,11.803L148.178,11.803z"/>
			<path fill="#0000FF" d="M170.426,29.551c0.384,0.192,0.804,0.342,1.26,0.45s0.923,0.162,1.404,0.162
				c1.008,0,1.902-0.216,2.682-0.648c0.779-0.432,1.337-1.02,1.674-1.764c0.096-0.239,0.18-0.456,0.252-0.648
				c0.072-0.192,0.12-0.426,0.144-0.702c0.023-0.276,0.042-0.636,0.054-1.08s0.018-1.026,0.018-1.746V9.607h4.284l2.196,5.364
				v13.968c0,0.697-0.006,1.278-0.018,1.746c-0.013,0.468-0.031,0.876-0.054,1.224c-0.024,0.348-0.054,0.643-0.09,0.882
				c-0.036,0.24-0.078,0.48-0.126,0.72c-0.48,1.872-1.488,3.324-3.024,4.356c-1.537,1.032-3.48,1.548-5.832,1.548
				c-2.112,0-3.865-0.396-5.256-1.188c-1.392-0.792-2.4-1.956-3.024-3.492l-2.196-5.364c-0.144-0.336-0.258-0.671-0.342-1.008
				c-0.084-0.336-0.15-0.708-0.198-1.116c-0.048-0.408-0.084-0.882-0.108-1.422s-0.036-1.17-0.036-1.89V9.607h4.14l2.196,5.364
				V29.551z M164.522,23.971c0,0.912,0.018,1.692,0.054,2.34s0.108,1.224,0.216,1.728c0.108,0.504,0.252,0.954,0.432,1.35
				c0.18,0.396,0.414,0.798,0.702,1.206c0.696,1.008,1.644,1.764,2.844,2.268s2.628,0.756,4.284,0.756
				c1.608,0,3.036-0.258,4.284-0.774s2.22-1.242,2.916-2.178c0.888-1.175,1.368-2.532,1.44-4.068
				c0.023-0.336,0.042-0.756,0.054-1.26s0.018-1.092,0.018-1.764v-13.5h-3.384v13.5c0,0.744-0.006,1.344-0.018,1.8
				c-0.012,0.457-0.036,0.828-0.072,1.116c-0.036,0.288-0.084,0.54-0.144,0.756c-0.061,0.216-0.15,0.456-0.27,0.72
				c-0.384,0.84-0.996,1.494-1.836,1.962s-1.824,0.702-2.952,0.702c-0.984,0-1.872-0.192-2.664-0.576s-1.392-0.9-1.8-1.548
				c-0.168-0.264-0.306-0.534-0.414-0.81s-0.192-0.588-0.252-0.936c-0.061-0.348-0.103-0.756-0.126-1.224
				c-0.024-0.468-0.036-1.038-0.036-1.71V10.075h-3.276L164.522,23.971L164.522,23.971z"/>
			<path fill="#0000FF" d="M203.869,27.679l-0.144-2.016l-0.036-1.548l-0.18-14.508h4.067l2.196,5.364v24.012h-4.932l-8.641-15.876
				c-0.071-0.144-0.132-0.27-0.18-0.378s-0.107-0.246-0.18-0.414c-0.072-0.167-0.168-0.39-0.288-0.666
				c-0.12-0.275-0.288-0.666-0.504-1.17l-0.433-1.044l0.036,0.36v0.324c0.023,0.192,0.042,0.444,0.055,0.756
				c0.012,0.312,0.023,0.625,0.035,0.936c0.013,0.312,0.019,0.612,0.019,0.9s0,0.504,0,0.648l0.107,15.624h-4.032l-2.196-5.364
				V9.607h5.796l7.92,14.724l0.252,0.54l1.26,3.096v-0.288H203.869z M203.978,10.075l0.144,14.04c0,0.336,0.006,0.625,0.019,0.864
				c0.012,0.24,0.023,0.48,0.036,0.72c0.012,0.24,0.023,0.51,0.036,0.81c0.012,0.3,0.041,0.69,0.09,1.17l0.107,1.872l0.181,2.664
				c-0.36-1.2-0.666-2.202-0.918-3.006s-0.475-1.481-0.666-2.034c-0.192-0.552-0.366-1.026-0.522-1.422s-0.318-0.797-0.485-1.206
				l-7.812-14.472h-5.112v23.112h3.168l-0.108-15.156c0-0.528-0.006-0.978-0.018-1.35c-0.013-0.372-0.031-0.792-0.054-1.26
				c-0.024-0.468-0.054-1.031-0.09-1.692c-0.036-0.66-0.09-1.53-0.162-2.61c0.36,0.984,0.654,1.788,0.882,2.412
				s0.432,1.158,0.612,1.602s0.354,0.846,0.521,1.206c0.168,0.36,0.36,0.768,0.576,1.224l8.532,15.624h4.212V10.075H203.978z"/>
			<path fill="#0000FF" d="M220.358,38.983h-4.14l-2.196-5.364V9.607h4.14l2.196,5.364V38.983z M214.453,33.187h3.276V10.075h-3.276
				V33.187z"/>
			<path fill="#0000FF" d="M244.55,19.111h-7.164v19.872h-4.284l-2.196-5.354V19.111h-5.076l-2.195-5.384v-4.12h18.72l2.196,5.384
				L244.55,19.111L244.55,19.111z M224.066,13.279h7.272v19.908h3.384V13.279h7.164v-3.204h-17.82L224.066,13.279L224.066,13.279z"
				/>
			<path fill="#0000FF" d="M265.537,18.967h-11.521v0.612h9.324l2.196,5.364v3.816h-11.521v1.152h9.324l2.196,5.364v3.708h-15.552
				l-2.196-5.364V9.607h15.552l2.196,5.364v3.996H265.537z M248.221,33.187h14.652v-2.808h-11.484v-7.416h11.484v-2.952h-11.484
				v-6.84h11.484v-3.096h-14.652L248.221,33.187L248.221,33.187z"/>
		</g>
	</g>
	<g id="Mark">
	</g>
</g>
<g id="Cut">
	<rect x="-3.724" y="-4.069" fill="none" stroke="#FF0000" stroke-miterlimit="10" width="283.465" height="56.693"/>
</g>
</svg>
